<svg xmlns="http://www.w3.org/2000/svg" xmlns:xlink="http://www.w3.org/1999/xlink" version="1.1" width='18' height='18' viewBox="0 0 48 60" enable-background="new 0 0 48 48" xml:space="preserve">
<path d="M12.542,10.957c0-0.14-0.113-0.253-0.253-0.253H4.085c-0.103,0-0.194,0.062-0.234,0.156   c-0.038,0.095-0.017,0.203,0.056,0.275l1.871,1.871c-7.469,8.433-7.114,21.236,0.851,29.257c0.047,0.048,0.112,0.075,0.18,0.075   c0.066,0,0.131-0.027,0.179-0.074l3.802-3.803c0.099-0.099,0.099-0.258,0.001-0.355c-5.64-5.691-5.987-14.832-0.84-20.928   l2.162,2.162c0.05,0.05,0.085,0.067,0.186,0.074c0.131,0.02,0.259-0.111,0.259-0.253c0-0.027-0.005-0.054-0.013-0.079   L12.542,10.957z"/><path d="M44.055,36.824l-1.831-1.832c7.468-8.434,7.112-21.237-0.852-29.256c-0.047-0.048-0.112-0.075-0.18-0.075   c-0.066,0-0.131,0.027-0.179,0.074l-3.802,3.803c-0.099,0.099-0.099,0.258-0.001,0.355c5.641,5.691,5.988,14.831,0.84,20.927   l-2.161-2.162c-0.073-0.073-0.181-0.095-0.275-0.056s-0.156,0.131-0.156,0.234v8.204c0,0.14,0.113,0.253,0.253,0.253l8.205,0.002   c0.004,0,0.01-0.001,0.014,0c0.139,0,0.252-0.113,0.252-0.253C44.182,36.949,44.131,36.867,44.055,36.824z"/><path d="M23.027,28.558c-5.361,0-9.723,4.36-9.723,9.72c0,5.36,4.361,9.723,9.723,9.723c5.36,0,9.721-4.362,9.721-9.723   C32.748,32.918,28.388,28.558,23.027,28.558z M23.482,43.1v1.635h-0.991v-1.589c-0.911-0.016-1.854-0.3-2.405-0.691l0.377-1.055   c0.566,0.379,1.384,0.677,2.265,0.677c1.116,0,1.872-0.646,1.872-1.542c0-0.865-0.612-1.398-1.777-1.871   c-1.604-0.629-2.595-1.354-2.595-2.722c0-1.304,0.928-2.294,2.375-2.532v-1.588h0.976v1.525c0.942,0.032,1.587,0.284,2.044,0.552   l-0.394,1.038c-0.33-0.189-0.975-0.536-1.982-0.536c-1.21,0-1.666,0.725-1.666,1.354c0,0.817,0.582,1.226,1.95,1.794   c1.619,0.66,2.438,1.478,2.438,2.876C25.968,41.667,25.103,42.831,23.482,43.1z"/><path d="M25.328,0c-5.36,0-9.721,4.36-9.721,9.721s4.36,9.722,9.721,9.722s9.723-4.361,9.723-9.722S30.688,0,25.328,0z    M27.084,7.718v0.943H22.89c-0.066,0.35-0.108,0.717-0.108,1.115c0,0.361,0.035,0.7,0.093,1.023h4.21v0.942h-3.935   c0.585,1.435,1.86,2.297,3.704,2.297c0.834,0,1.684-0.173,2.234-0.441l0.282,1.087c-0.503,0.25-1.509,0.501-2.799,0.501   c-2.375,0-4.263-1.209-4.945-3.443h-2.657V10.8h2.446c-0.043-0.313-0.081-0.631-0.081-0.977c0-0.404,0.035-0.792,0.101-1.162   h-2.466V7.718h2.722c0.749-2.123,2.651-3.462,5.18-3.462c1.321,0,2.155,0.284,2.516,0.472l-0.329,1.117   c-0.52-0.252-1.258-0.439-2.14-0.439c-1.779,0-3.119,0.826-3.743,2.313H27.084z"/>
</svg>