<svg width="18" height="18" viewBox="0 0 18 18" fill="none" xmlns="http://www.w3.org/2000/svg">
<path d="M6.95903 6.09629C7.73295 5.59106 8.24708 4.7042 8.24708 3.69215C8.24708 2.11775 7.00538 0.841797 5.47404 0.841797C3.94234 0.841797 2.70064 2.11775 2.70064 3.69215C2.70064 4.7042 3.21555 5.59106 3.98869 6.09629C1.68765 6.76145 0 8.93325 0 11.5111C0 14.6187 10.9474 14.6187 10.9474 11.5111C10.9474 8.93325 9.26007 6.76181 6.95903 6.09629Z" fill="#28334E"/>
<path d="M8.21094 5.87313C9.44886 6.48233 10.4364 7.52306 11.0336 8.78624C12.1363 8.59261 13.0004 8.14946 13.0004 7.45511C13.0004 5.85754 11.9794 4.51163 10.5873 4.09885C11.0552 3.78484 11.3671 3.23565 11.3671 2.60814C11.3671 1.63256 10.6153 0.841797 9.68931 0.841797C9.13132 0.841797 8.63869 1.12941 8.33364 1.56976C8.74121 2.14852 8.98543 2.8617 8.98543 3.63526C8.98508 4.46919 8.70587 5.25518 8.21094 5.87313Z" fill="#28334E"/>
</svg>
